<svg width="960" height="760" viewBox="0 0 960 760" fill="none" xmlns="http://www.w3.org/2000/svg">
  <path d="M248 130L419 276H430L480 326L530 276H541L712 130L480 414L248 130Z" fill="#7D1D2D"/>
  <path d="M450 242H510V336H450V242Z" fill="white"/>
  <path d="M480 62C524.183 62 560 97.8172 560 142C560 186.183 524.183 222 480 222C435.817 222 400 186.183 400 142C400 97.8172 435.817 62 480 62ZM480 102C457.909 102 440 119.909 440 142C440 164.091 457.909 182 480 182C502.091 182 520 164.091 520 142C520 119.909 502.091 102 480 102Z" fill="#FF8A12"/>
  <rect x="462" y="30" width="36" height="42" rx="4" fill="#FF8A12"/>
  <rect x="462" y="212" width="36" height="42" rx="4" fill="#FF8A12"/>
  <rect x="582" y="124" width="42" height="36" rx="4" fill="#FF8A12"/>
  <rect x="336" y="124" width="42" height="36" rx="4" fill="#FF8A12"/>
  <rect x="560.61" y="56.9492" width="28" height="42" rx="4" transform="rotate(45 560.61 56.9492)" fill="#FF8A12"/>
  <rect x="436.869" y="180.691" width="28" height="42" rx="4" transform="rotate(45 436.869 180.691)" fill="#FF8A12"/>
  <rect x="595.617" y="182.025" width="28" height="42" rx="4" transform="rotate(135 595.617 182.025)" fill="#FF8A12"/>
  <rect x="471.876" y="58.2842" width="28" height="42" rx="4" transform="rotate(135 471.876 58.2842)" fill="#FF8A12"/>
  <text x="480" y="470" text-anchor="middle" fill="#151515" font-family="Georgia, 'Times New Roman', serif" font-size="34" font-style="italic">Giving Wings To Thoughts</text>
  <text x="480" y="570" text-anchor="middle" fill="#7D1D2D" font-family="Georgia, 'Times New Roman', serif" font-size="92">St. PETER'S</text>
  <text x="480" y="650" text-anchor="middle" fill="#7D1D2D" font-family="Georgia, 'Times New Roman', serif" font-size="66">ENGINEERING COLLEGE</text>
  <line x1="164" y1="680" x2="796" y2="680" stroke="#7D1D2D" stroke-width="4"/>
  <text x="480" y="730" text-anchor="middle" fill="#151515" font-family="Georgia, 'Times New Roman', serif" font-size="36" font-weight="700">UGC - AUTONOMOUS</text>
</svg>
